<?xml version="1.0" encoding="UTF-8" standalone="no"?>
<!-- Created with Inkscape (http://www.inkscape.org/) -->

<svg
   xmlns:dc="http://purl.org/dc/elements/1.1/"
   xmlns:cc="http://creativecommons.org/ns#"
   xmlns:rdf="http://www.w3.org/1999/02/22-rdf-syntax-ns#"
   xmlns:svg="http://www.w3.org/2000/svg"
   xmlns="http://www.w3.org/2000/svg"
   xmlns:xlink="http://www.w3.org/1999/xlink"
   xmlns:sodipodi="http://sodipodi.sourceforge.net/DTD/sodipodi-0.dtd"
   xmlns:inkscape="http://www.inkscape.org/namespaces/inkscape"
   width="48"
   height="48"
   viewBox="0 0 12.7 12.7"
   version="1.1"
   id="svg8"
   inkscape:version="0.92.3 (2405546, 2018-03-11)"
   sodipodi:docname="icon.svg"
   inkscape:export-filename="/home/ash/bitmap.png"
   inkscape:export-xdpi="144"
   inkscape:export-ydpi="144">
  <defs
     id="defs2" />
  <sodipodi:namedview
     id="base"
     pagecolor="#ffffff"
     bordercolor="#666666"
     borderopacity="1.0"
     inkscape:pageopacity="0.0"
     inkscape:pageshadow="2"
     inkscape:zoom="1"
     inkscape:cx="-242.68173"
     inkscape:cy="-15.206983"
     inkscape:document-units="mm"
     inkscape:current-layer="layer1-3"
     showgrid="false"
     inkscape:window-width="2560"
     inkscape:window-height="1376"
     inkscape:window-x="0"
     inkscape:window-y="27"
     inkscape:window-maximized="1"
     units="px" />
  <metadata
     id="metadata5">
    <rdf:RDF>
      <cc:Work
         rdf:about="">
        <dc:format>image/svg+xml</dc:format>
        <dc:type
           rdf:resource="http://purl.org/dc/dcmitype/StillImage" />
        <dc:title></dc:title>
      </cc:Work>
    </rdf:RDF>
  </metadata>
  <g
     inkscape:label="Layer 1"
     inkscape:groupmode="layer"
     id="layer1"
     transform="translate(-346.52857,-44.360713)">
    <g
       transform="translate(628.15299,-99.013344)"
       id="layer1-3"
       inkscape:label="Layer 1">
      <g
         id="g853"
         transform="matrix(0.01920247,0,0,0.01920247,-282.46027,147.7643)" />
      <g
         id="g880"
         transform="matrix(1.4999299,0,0,1.4999299,140.79335,-78.082522)">
        <g
           id="g856">
          <path
             style="fill:#ffcc00;stroke-width:0.02979189"
             inkscape:connector-curvature="0"
             d="m -273.87138,148.6572 c 0.0481,0.006 0.0973,0.0242 0.11155,0.0892 0.008,0.0338 0.02,0.0673 0.0223,0.10147 0.0174,0.25183 0.11326,0.42814 0.39787,0.44306 0.0731,0.003 0.13234,0.0487 0.1311,0.13467 -0.001,0.0864 -0.0611,0.12676 -0.13528,0.13001 -0.28004,0.0124 -0.36969,0.18972 -0.39228,0.43291 -0.005,0.0439 -0.016,0.0881 -0.0309,0.12986 -0.0189,0.0535 -0.0684,0.0731 -0.11869,0.0738 -0.0504,6.6e-4 -0.0982,-0.0194 -0.12039,-0.0715 -0.0109,-0.0272 -0.0228,-0.0565 -0.0247,-0.0855 -0.0175,-0.27111 -0.11155,-0.4728 -0.4246,-0.48733 -0.0709,-0.003 -0.10597,-0.0562 -0.10922,-0.1204 -0.003,-0.0748 0.0402,-0.12535 0.1148,-0.12908 0.30615,-0.0155 0.39401,-0.21218 0.4193,-0.47751 0.0124,-0.12877 0.0628,-0.16766 0.15893,-0.16364"
             id="path845" />
          <path
             id="path855"
             d="m -278.7848,148.69776 c -0.18315,0.2677 -0.027,0.69925 0.36329,0.74879 0.0562,0.007 0.096,0.0296 0.0884,0.0889 -0.008,0.0599 -0.0574,0.0799 -0.108,0.063 -0.0727,-0.0242 -0.1131,0.0155 -0.15813,0.0579 -0.35648,0.33531 -0.552,0.75485 -0.63355,1.2299 -0.0809,0.47111 -0.0941,0.94748 -0.0796,1.4242 0.0165,0.54266 0.0909,1.0763 0.29043,1.58543 0.32638,0.83293 0.9166,1.34094 1.81435,1.47278 0.33449,0.0491 0.67026,0.0344 1.00563,0.0341 0.30036,-2.9e-4 0.60181,0.0197 0.90124,-0.0207 0.48121,-0.0649 0.82574,-0.30353 0.98546,-0.77773 0.0179,-0.0531 0.0165,-0.0751 -0.0444,-0.0946 -0.11208,-0.0358 -0.2212,-0.0817 -0.32349,-0.14211 -0.71479,-0.42234 -0.96693,-1.43559 -0.52969,-2.16318 0.16689,-0.27768 0.3706,-0.52392 0.71572,-0.59221 0.0381,-0.008 0.0409,-0.0274 0.0362,-0.062 -0.0307,-0.22472 -0.05,-0.45126 -0.0894,-0.67438 -0.084,-0.4751 -0.28342,-0.89291 -0.64389,-1.22421 -0.0367,-0.0337 -0.0678,-0.0736 -0.13126,-0.0543 -0.0515,0.0157 -0.10912,0.009 -0.11937,-0.0594 -0.0113,-0.0746 0.0438,-0.0853 0.10283,-0.094 0.15074,-0.0224 0.2651,-0.10188 0.34934,-0.22893 0.0916,-0.13818 0.10882,-0.39319 -0.006,-0.51159 -0.16114,0.26445 -0.38218,0.4706 -0.62993,0.65009 -0.0797,0.0577 -0.12328,0.0447 -0.14625,-0.0455 -0.008,-0.0301 -0.0187,-0.0433 -0.0444,-0.0527 -0.0569,-0.0209 -0.11389,-0.0416 -0.1695,-0.0656 -0.033,-0.0143 -0.0512,-0.005 -0.0713,0.0227 -0.0559,0.0779 -0.13766,0.12181 -0.22273,0.1602 -0.23031,0.10392 -0.47376,0.13223 -0.72192,0.11007 -0.21829,-0.0195 -0.44891,-0.0535 -0.59996,-0.21756 -0.11111,-0.12063 -0.19256,-0.0816 -0.29869,-0.0382 -0.0207,0.008 -0.041,0.0177 -0.062,0.0253 -0.0183,0.007 -0.0328,0.0133 -0.0408,0.0351 -0.045,0.1234 -0.0629,0.12957 -0.16794,0.0506 -0.23664,-0.1777 -0.45177,-0.37694 -0.61082,-0.64027 z m -2.44481,1.38338 c -0.0606,0.005 -0.11,0.046 -0.14986,0.0992 -0.0483,0.0645 -0.0261,0.1259 0.015,0.185 0.035,0.0503 0.0759,0.0955 0.12454,0.13229 0.0662,0.05 0.13406,0.0979 0.20257,0.1447 0.0331,0.0226 0.0626,0.0444 0.0589,0.0904 -0.003,0.0429 -0.0312,0.0623 -0.0682,0.0693 -0.0398,0.008 -0.0578,0.0384 -0.078,0.0661 -0.30559,0.41827 -0.39073,0.89242 -0.32091,1.39268 0.0495,0.35419 0.22792,0.66212 0.42323,0.95705 0.17447,0.26344 0.3787,0.4995 0.64441,0.67593 0.19536,0.12969 0.40248,0.19113 0.6351,0.10645 0.16378,-0.0596 0.30843,-0.15317 0.45423,-0.24546 0.0323,-0.0204 0.0384,-0.0436 0.0274,-0.0806 -0.14352,-0.48451 -0.20576,-0.98069 -0.20567,-1.48518 2e-5,-0.0345 -0.003,-0.069 -0.0227,-0.10542 -0.0536,0.0375 -0.10354,0.0762 -0.15761,0.10904 -0.0593,0.036 -0.10409,0.0192 -0.12506,-0.0486 -0.008,-0.0243 -0.0111,-0.0496 -0.0171,-0.0744 -0.10316,-0.43094 -0.2968,-0.82092 -0.52813,-1.17822 0,0.22152 -0.008,0.45044 0.003,0.67851 0.009,0.20082 -0.0937,0.31064 -0.29249,0.28577 -0.0249,-0.003 -0.0571,-0.0117 -0.0749,-5.3e-4 -0.13249,0.0835 -0.2717,0.047 -0.41031,0.03 -0.0547,-0.007 -0.0927,-0.0341 -0.0847,-0.0935 0.008,-0.0583 0.0539,-0.0628 0.10232,-0.0599 0.0733,0.004 0.1446,0.0284 0.21911,0.0212 0.0328,-0.003 0.0658,-0.007 0.0817,-0.0398 0.0184,-0.0378 -0.001,-0.0705 -0.0274,-0.0946 -0.0326,-0.0301 -0.0698,-0.0559 -0.10697,-0.0806 -0.0505,-0.0336 -0.1039,-0.0632 -0.15451,-0.0966 -0.0407,-0.0269 -0.0675,-0.0623 -0.0388,-0.11265 0.0283,-0.0495 0.0738,-0.0463 0.11782,-0.0274 0.0734,0.0315 0.1452,0.0666 0.21808,0.0992 0.0614,0.0275 0.12372,0.0519 0.19275,0.0512 0.0925,-10e-4 0.11348,-0.0324 0.0651,-0.11007 -0.0757,-0.12157 -0.17148,-0.22338 -0.31316,-0.26872 -0.0362,-0.0116 -0.0669,-0.0271 -0.0739,-0.0661 -0.007,-0.0397 0.0129,-0.0695 0.0506,-0.0817 0.041,-0.0132 0.0396,-0.0437 0.0398,-0.0765 8.8e-4,-0.14711 0.002,-0.29421 0.003,-0.44132 1.7e-4,-0.0283 0.006,-0.0585 -0.0181,-0.0811 -0.10283,-0.0968 -0.20819,-0.1928 -0.3452,-0.23668 -0.0227,-0.007 -0.0444,-0.01 -0.0646,-0.008 z m 6.76548,1.67535 c -0.0811,0.009 -0.16631,0.0496 -0.25735,0.12196 -0.46432,0.36909 -0.62895,0.85668 -0.51677,1.43247 0.15478,0.79442 0.83644,1.15718 1.464,1.13068 0.18133,-0.008 0.32203,-0.0992 0.41599,-0.25425 0.0552,-0.091 0.0813,-0.19107 0.0181,-0.28939 -0.0619,-0.0962 -0.15669,-0.0817 -0.25012,-0.061 -0.003,6.9e-4 -0.006,0.003 -0.009,0.003 -0.0388,0.006 -0.0703,-0.005 -0.0868,-0.0424 -0.0181,-0.0409 -0.008,-0.0778 0.031,-0.0992 0.0368,-0.0204 0.0722,-0.0398 0.0956,-0.0765 0.0227,-0.0356 0.0511,-0.075 0.0181,-0.11317 -0.0317,-0.0366 -0.0796,-0.0377 -0.12454,-0.0191 -0.0521,0.0215 -0.0911,0.0601 -0.11989,0.10697 -0.0283,0.0462 -0.0643,0.0782 -0.11679,0.0496 -0.0588,-0.032 -0.0435,-0.0824 -0.0191,-0.13281 0.0937,-0.19354 0.13186,-0.39956 0.12971,-0.53847 -4.3e-4,-0.41735 -0.0881,-0.73223 -0.29611,-1.00769 -0.11726,-0.15529 -0.24061,-0.22623 -0.37568,-0.21084 z m 0.31781,2.86236 c -0.011,0.007 -0.0182,0.0217 -0.0253,0.0424 -0.0999,0.289 -0.26736,0.52736 -0.54726,0.69453 0.20537,0.0414 0.38835,0.0272 0.56689,-0.0336 0.0521,-0.0178 0.13,-0.0282 0.13436,-0.0879 0.003,-0.047 -0.0718,-0.0628 -0.11472,-0.0889 -0.0163,-0.01 -0.0338,-0.0184 -0.0506,-0.0274 -0.0505,-0.0269 -0.10203,-0.0596 -0.0677,-0.12505 0.0311,-0.0592 0.0847,-0.0391 0.13488,-0.0186 0.13397,0.0548 0.2738,0.0578 0.41444,0.0398 0.06,-0.008 0.11956,-0.0273 0.1633,-0.0739 0.0378,-0.0402 0.0478,-0.0815 -0.0191,-0.0992 -0.18938,-0.0501 -0.36601,-0.13082 -0.54054,-0.21704 -0.0228,-0.0113 -0.0376,-0.0122 -0.0486,-0.005 z"
             style="fill:#1da1f2;fill-opacity:1;stroke-width:0.01920247"
             inkscape:connector-curvature="0" />
          <path
             style="fill:#ffffff;fill-opacity:1;stroke-width:0.01920247"
             inkscape:connector-curvature="0"
             d="m -277.96063,148.64548 c 0.27778,-0.0962 0.55627,-0.18073 0.8249,-0.28963 0.1897,-0.0769 0.3597,-0.0788 0.5495,5.8e-4 0.24406,0.10208 0.49936,0.17729 0.74972,0.26434 0.0232,0.008 0.0458,0.018 0.0827,0.0326 -0.36692,0.12653 -0.71982,0.24823 -1.07276,0.36982 -0.025,0.009 -0.05,0.008 -0.0752,-0.001 -0.34701,-0.12015 -0.69409,-0.24009 -1.04106,-0.3604 -0.005,-0.002 -0.008,-0.007 -0.0178,-0.0163"
             id="path861" />
          <path
             style="fill:#ffffff;fill-opacity:1;stroke-width:0.01920247"
             inkscape:connector-curvature="0"
             d="m -276.1894,148.96816 c 0.0352,0.11322 3.7e-4,0.18753 -0.0987,0.23402 -0.39255,0.18429 -0.78307,0.18229 -1.17108,-0.0131 -0.0223,-0.0112 -0.042,-0.0295 -0.0599,-0.0475 -0.0451,-0.0451 -0.0391,-0.10862 -0.0193,-0.15252 0.0179,-0.0396 0.0663,0.003 0.0986,0.0134 0.16673,0.055 0.33287,0.11207 0.49799,0.17175 0.054,0.0195 0.10243,0.0201 0.157,5e-4 0.1976,-0.0711 0.39671,-0.13805 0.59541,-0.2066"
             id="path865" />
          <path
             style="fill:#fdfdfd;stroke-width:0.01920247"
             inkscape:connector-curvature="0"
             d="m -280.597,148.87299 c 0.0405,0.53854 0.0608,1.07811 0.0795,1.61768 0.007,0.19922 10e-4,0.39887 10e-4,0.59028 -0.10132,-0.0488 -0.14208,-0.13566 -0.13786,-0.27081 0.0201,-0.64526 0.0288,-1.29091 0.0415,-1.9364 0.005,-0.01 0.01,-0.01 0.0157,-7.5e-4"
             id="path867" />
          <path
             style="fill:#faf9f8;stroke-width:0.01920247"
             inkscape:connector-curvature="0"
             d="m -275.91131,148.86909 c 0.0572,0.0214 0.0633,0.0789 0.0764,0.12536 0.007,0.0251 -0.0127,0.0784 -0.0445,0.0659 -0.0511,-0.0201 -0.13356,0.002 -0.14525,-0.0882 -0.0115,-0.0889 0.065,-0.0754 0.11331,-0.10306"
             id="path879" />
          <path
             style="fill:#eeebe6;stroke-width:0.01920247"
             inkscape:connector-curvature="0"
             d="m -280.54824,151.70518 c -0.0531,0.008 -0.0676,-0.0172 -0.0688,-0.0588 -0.002,-0.072 0.0541,-0.0314 0.0822,-0.0406 0.0248,-0.008 0.0666,-0.0243 0.0652,0.0326 -10e-4,0.0572 -0.0461,0.0592 -0.0787,0.0668"
             id="path881" />
          <path
             style="fill:#a894a6;stroke-width:0.01920247"
             inkscape:connector-curvature="0"
             d="m -275.70801,149.12783 c 0.0249,-0.0328 0.0501,-0.0371 0.0771,-0.007 0.008,0.009 0.0141,0.0246 10e-4,0.0317 -0.0329,0.0182 -0.0549,-0.004 -0.0783,-0.0246"
             id="path883" />
          <path
             style="fill:#dcd4ca;stroke-width:0.01920247"
             inkscape:connector-curvature="0"
             d="m -280.597,148.87299 c -0.005,6.2e-4 -0.0105,8.7e-4 -0.0157,7.5e-4 0,-0.0282 0,-0.0565 0,-0.0847 0.005,-1.9e-4 0.0105,-3.8e-4 0.0157,-5.9e-4 0,0.0282 0,0.0564 0,0.0846"
             id="path885" />
          <path
             style="fill:#b6673c;stroke-width:0.01920247"
             inkscape:connector-curvature="0"
             d="m -276.9472,155.55171 c -0.0266,7.9e-4 -0.0532,0.002 -0.0798,0.002 0.0255,-0.0371 0.0527,-0.0168 0.0798,-0.002"
             id="path887" />
          <path
             style="fill:#fefefe;stroke-width:0.01920247"
             inkscape:connector-curvature="0"
             d="m -276.87356,151.98433 c -0.4142,-0.0189 -0.83076,-0.008 -1.23967,-0.0964 -0.0343,-0.007 -0.0686,-0.0152 -0.10228,-0.0251 -0.35344,-0.10363 -0.5691,-0.32248 -0.60274,-0.7035 -0.033,-0.37301 -2.7e-4,-0.73182 0.23949,-1.03639 0.19037,-0.24182 0.4489,-0.32917 0.75143,-0.26025 0.17582,0.0401 0.33739,0.11611 0.48216,0.22538 0.0255,0.0193 0.0509,0.0386 0.0767,0.0574 0.30833,0.2254 0.50483,0.22305 0.80097,-0.0191 0.15383,-0.12578 0.32502,-0.21224 0.51626,-0.26108 0.29904,-0.0763 0.55092,0.0109 0.72866,0.25476 0.27623,0.37896 0.33115,0.80971 0.2243,1.2588 -0.049,0.20608 -0.20354,0.33324 -0.39225,0.41898 -0.25518,0.11596 -0.52929,0.14049 -0.80302,0.16234 -0.22606,0.0181 -0.4528,0.0289 -0.68002,0.024"
             id="path897" />
          <path
             style="fill:#f7f5f3;stroke-width:0.01920247"
             inkscape:connector-curvature="0"
             d="m -277.05527,153.03926 c 0.10572,0 0.21145,-1.4e-4 0.31718,1.5e-4 0.0158,4e-5 0.0365,0.002 0.036,0.0206 -3.7e-4,0.0125 -0.0144,0.027 -0.0258,0.0365 -0.0802,0.0673 -0.22404,0.0526 -0.32736,-0.0573"
             id="path899" />
          <path
             style="fill:#f5f4f1;stroke-width:0.01920247"
             inkscape:connector-curvature="0"
             d="m -277.70987,152.92984 c -0.1208,0.0611 -0.22073,0.0332 -0.29022,-0.0831 0.0896,0.044 0.19024,0.0486 0.29022,0.0831"
             id="path901" />
          <path
             style="fill:#f7f5f3;stroke-width:0.01920247"
             inkscape:connector-curvature="0"
             d="m -275.76489,152.84378 c -0.0568,0.1395 -0.14507,0.16445 -0.27386,0.0863 0.0914,-0.0342 0.19291,-0.0224 0.27386,-0.0863"
             id="path903" />
          <path
             inkscape:connector-curvature="0"
             style="opacity:0.16499999;fill:#ffcc00;stroke-width:0.07257627"
             d="m 22.183594,12.1875 c -0.07181,0.04573 -0.06288,0.121107 -0.07422,0.191406 -0.07049,0.443755 -0.213254,0.585007 -0.667969,0.66211 -0.07106,0.01209 -0.144037,0.01589 -0.199218,0.07031 -0.02117,0.09373 -0.0436,0.18714 -0.0625,0.28125 -0.085,0.445002 -0.01026,0.864342 0.359374,1.140625 0.395679,0.295181 0.865877,0.385226 1.330079,0.154297 0.437291,-0.217285 0.672807,-0.747097 0.607421,-1.255859 -0.06096,-0.475011 -0.455848,-0.91585 -0.929687,-1.039063 -0.138709,-0.03628 -0.28051,-0.06939 -0.363281,-0.205078 z m -8.591797,0.06836 c -0.634318,0.06539 -1.168935,0.554782 -1.279297,1.185547 -0.08636,0.493077 0.04895,0.926086 0.470703,1.203125 0.376139,0.247181 0.81373,0.418239 1.255859,0.181641 0.553777,-0.29658 1.069365,-0.937432 0.654297,-1.708984 -0.06274,-0.05291 -0.134842,-0.03536 -0.207031,-0.0332 -0.473348,0.01425 -0.680149,-0.145955 -0.787109,-0.611328 -0.01852,-0.08126 -0.01936,-0.170308 -0.107422,-0.216797 z"
             transform="matrix(0.26458333,0,0,0.26458333,-281.62442,147.60739)"
             id="path905" />
          <path
             inkscape:connector-curvature="0"
             style="fill:#0a344f;fill-opacity:1;stroke-width:0.01920247"
             d="m -280.61652,147.77299 c -0.0709,-0.001 -0.0866,0.0551 -0.0946,0.1111 -0.008,0.0537 -0.0151,0.10755 -0.0191,0.16175 -0.0347,0.52964 -0.0438,1.06013 -0.0548,1.5906 -0.004,0.16117 -5.3e-4,0.32289 -5.3e-4,0.50178 -0.12166,-0.0824 -0.21553,-0.16571 -0.339,-0.19741 -0.13982,-0.0359 -0.28851,0.0192 -0.37931,0.14366 -0.0803,0.10974 -0.0783,0.23791 0.008,0.36587 0.0635,0.0938 0.14576,0.17006 0.23926,0.23306 0.0402,0.027 0.0434,0.0443 0.0124,0.0858 -0.10738,0.14375 -0.19958,0.29827 -0.25528,0.46922 -0.17145,0.52596 -0.18208,1.0479 0.061,1.55804 0.22402,0.47013 0.50862,0.89378 0.93845,1.20406 0.31953,0.23061 0.65149,0.25671 0.99735,0.0636 0.0724,-0.0404 0.14744,-0.0783 0.21394,-0.12713 0.0689,-0.0506 0.0976,-0.0525 0.13333,0.0388 0.24938,0.63777 0.66507,1.12213 1.31206,1.38338 0.0639,0.0258 0.0452,0.0471 0.0196,0.0868 -0.0556,0.0862 -0.0721,0.17979 -0.0155,0.27079 0.055,0.0883 0.14034,0.10305 0.23564,0.0755 0.0237,-0.007 0.0386,-0.004 0.0568,0.0176 0.11247,0.1349 0.18452,0.14868 0.34572,0.0703 0.0229,-0.011 0.0381,-0.0215 0.0682,-0.006 0.14982,0.0762 0.29461,0.0359 0.38861,-0.10336 0.0343,-0.0507 0.0553,-0.10691 0.0693,-0.16691 0.0197,-0.084 0.0893,-0.0419 0.13539,-0.0429 0.0642,-0.001 0.0211,0.0438 0.017,0.0677 -0.0364,0.19568 0.0868,0.30852 0.28009,0.25632 0.0213,-0.006 0.0382,-0.0218 0.0661,0.006 0.11378,0.1142 0.21382,0.12037 0.3452,0.03 0.0269,-0.0184 0.0448,-0.0339 0.0827,-0.0134 0.0964,0.0523 0.18617,0.02 0.26717,-0.0414 0.0868,-0.0658 0.12401,-0.1592 0.14211,-0.26303 0.004,-0.0249 -0.01,-0.0606 0.0362,-0.0656 0.17818,-0.0188 0.35205,-0.0987 0.53641,-0.0294 0.0437,0.0169 0.0944,0.0156 0.14211,0.0196 0.21031,0.0185 0.41522,-0.004 0.60874,-0.0925 0.0827,-0.0377 0.16682,-0.0868 0.16382,-0.19172 -0.002,-0.0641 0.0265,-0.0641 0.0708,-0.0661 0.11629,-0.006 0.22949,-0.0241 0.32349,-0.10025 0.0733,-0.0594 0.12019,-0.13498 0.10439,-0.23358 -0.0156,-0.0968 -0.0919,-0.12998 -0.17415,-0.15658 -0.0743,-0.0241 -0.15474,-0.0333 -0.22945,-0.0837 0.0479,-0.0103 0.0873,-0.017 0.12558,-0.0279 0.20185,-0.0573 0.35905,-0.17548 0.43615,-0.37156 0.0687,-0.17462 0.0574,-0.43933 -0.16485,-0.51263 -0.0448,-0.0147 -0.0354,-0.0389 -0.0264,-0.0739 0.0428,-0.17112 -0.05,-0.28746 -0.22841,-0.29146 -0.0218,-4.7e-4 -0.0436,0 -0.0703,0 0.003,-0.0198 0.004,-0.0348 0.007,-0.0496 0.0821,-0.39092 0.0458,-0.77096 -0.12454,-1.13223 -0.10157,-0.21547 -0.22494,-0.41834 -0.46561,-0.51004 -0.036,-0.0137 -0.0326,-0.0432 -0.0356,-0.0708 -0.024,-0.19341 -0.0453,-0.38735 -0.0724,-0.58033 -0.0747,-0.53299 -0.27035,-1.01012 -0.66094,-1.39268 -0.0543,-0.0532 -0.0499,-0.0713 0.0103,-0.11575 0.3048,-0.22443 0.35258,-0.67872 0.10542,-0.94982 -0.079,-0.0866 -0.12608,-0.0793 -0.17518,0.0264 -0.0824,0.17716 -0.20999,0.31952 -0.35037,0.45165 -0.0201,0.019 -0.0401,0.0457 -0.0703,0.01 -0.0366,-0.0435 -0.0866,-0.0649 -0.14056,-0.076 -0.0579,-0.0119 -0.0603,-0.0654 -0.0703,-0.10336 -0.0111,-0.0442 0.0428,-0.0354 0.0677,-0.0465 0.0464,-0.0207 0.096,-0.0332 0.14418,-0.0501 0.04,-0.014 0.0807,-0.03 0.0827,-0.0811 0.002,-0.0569 -0.042,-0.0733 -0.0858,-0.0884 -0.42814,-0.14763 -0.85601,-0.29487 -1.28365,-0.4439 -0.0418,-0.0145 -0.0782,-0.0146 -0.11989,0 -0.4276,0.14901 -0.85588,0.29668 -1.28414,0.4439 -0.0442,0.0152 -0.0868,0.03 -0.0858,0.0868 10e-4,0.0573 0.047,0.0701 0.0899,0.0848 0.14784,0.0508 0.29547,0.10237 0.44339,0.15297 0.0308,0.0105 0.0588,0.0178 0.0589,0.0615 10e-5,0.0436 -0.0254,0.049 -0.0579,0.0605 -0.11429,0.0403 -0.2275,0.0849 -0.34055,0.12868 -0.0263,0.0106 -0.0471,0.0264 -0.077,5.1e-4 -0.19644,-0.16994 -0.38973,-0.34203 -0.50385,-0.58291 -0.0573,-0.1209 -0.10594,-0.12674 -0.19224,-0.0217 -0.23602,0.28698 -0.18296,0.71399 0.12351,0.94206 0.059,0.0437 0.0475,0.0617 0.005,0.10232 -0.25657,0.24635 -0.42957,0.54543 -0.54312,0.88005 -0.13726,0.40461 -0.15925,0.82629 -0.17725,1.24798 -0.007,0.15792 -0.0467,0.22226 -0.185,0.27596 -0.13514,-0.48477 -0.35016,-0.93106 -0.65216,-1.33429 -0.0326,-0.0436 -0.0631,-0.0848 -0.0641,-0.14469 -0.003,-0.16612 -0.0111,-0.33213 -0.0181,-0.49816 -0.0257,-0.60657 -0.0555,-1.21312 -0.10232,-1.8185 -0.008,-0.10185 -0.0224,-0.20325 -0.0372,-0.30437 -0.008,-0.0551 -0.0247,-0.11217 -0.0946,-0.11317 z m 3.75533,0.52503 c 0.0899,-1.6e-4 0.18002,0.0187 0.27492,0.0584 0.24406,0.10208 0.49946,0.17754 0.74982,0.26459 0.0232,0.008 0.0458,0.0179 0.0827,0.0325 -0.36692,0.12653 -0.71986,0.24842 -1.0728,0.37001 -0.025,0.009 -0.0503,0.008 -0.0755,-0.001 -0.34701,-0.12015 -0.69379,-0.24039 -1.04076,-0.3607 -0.005,-0.002 -0.008,-0.007 -0.0181,-0.016 0.27778,-0.0962 0.55613,-0.181 0.82476,-0.2899 0.0949,-0.0385 0.18498,-0.0577 0.27492,-0.0579 z m -1.92392,0.39998 c 0.15905,0.26333 0.37418,0.46257 0.61082,0.64027 0.10514,0.079 0.12295,0.0728 0.16795,-0.0506 0.008,-0.0218 0.0225,-0.0281 0.0408,-0.0351 0.021,-0.008 0.0413,-0.0173 0.062,-0.0253 0.10613,-0.0434 0.18758,-0.0824 0.29869,0.0382 0.15105,0.16406 0.38168,0.19806 0.59997,0.21756 0.24816,0.0222 0.49161,-0.006 0.72192,-0.11007 0.0851,-0.0384 0.16682,-0.0823 0.22272,-0.1602 0.0201,-0.0277 0.0383,-0.037 0.0713,-0.0227 0.0556,0.024 0.11259,0.0447 0.16949,0.0656 0.0257,0.009 0.0365,0.0226 0.0444,0.0527 0.023,0.0902 0.0665,0.10318 0.14624,0.0455 0.24775,-0.17949 0.4688,-0.38564 0.62994,-0.65009 0.11482,0.1184 0.0973,0.37342 0.006,0.5116 -0.0842,0.12705 -0.19859,0.20652 -0.34933,0.22892 -0.059,0.009 -0.11414,0.0195 -0.10284,0.0941 0.0102,0.0684 0.0679,0.0751 0.11937,0.0594 0.0635,-0.0193 0.0946,0.0206 0.13126,0.0543 0.36047,0.3313 0.55989,0.74912 0.64389,1.22422 0.0394,0.22312 0.0587,0.44966 0.0894,0.67438 0.005,0.0346 0.002,0.054 -0.0362,0.062 -0.34512,0.0683 -0.54883,0.31453 -0.71572,0.59221 -0.43724,0.72759 -0.18511,1.74083 0.52968,2.16317 0.10229,0.0604 0.21142,0.10631 0.3235,0.14211 0.0609,0.0195 0.0623,0.0415 0.0444,0.0946 -0.15972,0.4742 -0.50426,0.71283 -0.98547,0.77773 -0.29943,0.0404 -0.60088,0.0204 -0.90124,0.0207 -0.33537,3e-4 -0.67113,0.015 -1.00562,-0.0341 -0.89775,-0.13184 -1.48798,-0.63985 -1.81436,-1.47278 -0.19953,-0.50913 -0.27392,-1.04277 -0.29042,-1.58543 -0.0145,-0.47672 -0.001,-0.9531 0.0796,-1.42421 0.0816,-0.47505 0.27707,-0.89458 0.63355,-1.22989 0.045,-0.0424 0.0854,-0.0821 0.15813,-0.0579 0.0506,0.0169 0.10001,-0.003 0.10801,-0.0631 0.008,-0.0593 -0.0322,-0.0819 -0.0884,-0.0889 -0.39029,-0.0495 -0.54644,-0.48109 -0.36329,-0.74879 z m -1.82056,0.16846 c 0.003,-9e-5 0.005,0.002 0.008,0.007 0.0405,0.53854 0.0609,1.0779 0.0796,1.61747 0.007,0.19922 0.001,0.39925 0.001,0.59066 -0.10132,-0.0488 -0.1422,-0.13563 -0.13798,-0.27078 0.0201,-0.64526 0.0292,-1.29083 0.0419,-1.93632 0.002,-0.005 0.005,-0.008 0.007,-0.008 z m 4.69429,0.003 c 0.0572,0.0214 0.0634,0.0786 0.0765,0.12506 0.007,0.0251 -0.0126,0.0786 -0.0444,0.0661 -0.0511,-0.0201 -0.13404,0.002 -0.14573,-0.0884 -0.0115,-0.0889 0.0654,-0.0752 0.11369,-0.10284 z m -0.27802,0.0987 c 0.0352,0.11322 3.7e-4,0.18761 -0.0987,0.2341 -0.39255,0.18429 -0.7835,0.18247 -1.1715,-0.0129 -0.0223,-0.0112 -0.0415,-0.0295 -0.0594,-0.0475 -0.0451,-0.0451 -0.0394,-0.10855 -0.0196,-0.15245 0.0179,-0.0396 0.0664,0.003 0.0987,0.0134 0.16673,0.055 0.33304,0.11188 0.49816,0.17156 0.054,0.0195 0.10253,0.0201 0.1571,5.2e-4 0.1976,-0.0711 0.39661,-0.13816 0.59531,-0.20671 z m 0.51883,0.13281 c 0.0128,-10e-4 0.0258,0.005 0.0393,0.0202 0.008,0.009 0.0141,0.0244 10e-4,0.0315 -0.0329,0.0182 -0.0546,-0.004 -0.078,-0.0248 0.0125,-0.0164 0.0249,-0.0255 0.0377,-0.0269 z m -0.11058,0.5855 c -0.10346,0.002 -0.21136,0.0226 -0.32143,0.061 -0.1802,0.0628 -0.33979,0.15924 -0.48938,0.27699 -0.2259,0.17738 -0.33174,0.17773 -0.56482,0.008 -0.12947,-0.0942 -0.26101,-0.18362 -0.40928,-0.24702 -0.4888,-0.20913 -0.9693,-0.077 -1.21646,0.35709 -0.24053,0.42241 -0.26914,0.87756 -0.11731,1.33377 0.10571,0.31759 0.37458,0.46507 0.68161,0.54467 0.43438,0.11262 0.88101,0.0951 1.19528,0.11214 v 5.2e-4 c 0.43263,0.009 0.73596,-0.006 1.03818,-0.0372 0.24864,-0.026 0.49321,-0.0684 0.7183,-0.18655 0.23097,-0.12117 0.38919,-0.30232 0.43719,-0.56173 0.0788,-0.42574 0.0275,-0.83622 -0.19327,-1.21284 -0.17718,-0.30227 -0.44823,-0.45608 -0.75861,-0.44907 z m 0.0449,0.15244 c 0.20533,0.004 0.38036,0.0982 0.51367,0.28112 0.27623,0.37896 0.33112,0.80975 0.22427,1.25884 -0.049,0.20608 -0.20351,0.33336 -0.39222,0.4191 -0.25518,0.11596 -0.52932,0.14041 -0.80305,0.16226 -0.22606,0.0181 -0.45284,0.0292 -0.68006,0.0243 -0.4142,-0.0189 -0.83081,-0.008 -1.23972,-0.0966 -0.0343,-0.007 -0.0686,-0.0149 -0.10232,-0.0248 -0.35344,-0.10363 -0.56891,-0.32281 -0.60255,-0.70383 -0.0329,-0.37301 -5e-4,-0.73155 0.23926,-1.03612 0.19037,-0.24182 0.44885,-0.32937 0.75138,-0.26045 0.17582,0.0401 0.33737,0.11604 0.48214,0.22531 0.0255,0.0193 0.0512,0.0386 0.077,0.0574 0.30833,0.2254 0.50484,0.22355 0.80098,-0.0186 0.15383,-0.12578 0.32501,-0.21264 0.51625,-0.26148 0.0748,-0.0191 0.14653,-0.0276 0.21497,-0.0264 z m -5.49372,0.24236 5.3e-4,5.2e-4 c 0.0202,-0.002 0.0419,7.5e-4 0.0646,0.008 0.13701,0.0439 0.24237,0.13988 0.3452,0.23668 0.0241,0.0226 0.0182,0.0528 0.0181,0.0811 l -0.003,0.44132 c -2e-4,0.0328 10e-4,0.0633 -0.0398,0.0765 -0.0378,0.0122 -0.0576,0.042 -0.0506,0.0816 0.007,0.039 0.0377,0.0545 0.0739,0.0661 0.14167,0.0453 0.23745,0.14715 0.31315,0.26872 0.0484,0.0777 0.0274,0.10907 -0.0651,0.11007 -0.069,6.9e-4 -0.13135,-0.0237 -0.19275,-0.0512 -0.0729,-0.0326 -0.14468,-0.0677 -0.21808,-0.0992 -0.044,-0.0189 -0.0895,-0.0221 -0.11782,0.0274 -0.0287,0.0503 -0.002,0.0858 0.0388,0.11266 0.0506,0.0334 0.10401,0.063 0.15451,0.0966 0.0372,0.0247 0.0744,0.0505 0.10697,0.0806 0.0264,0.0241 0.0458,0.0568 0.0274,0.0946 -0.0159,0.0328 -0.0488,0.0368 -0.0816,0.0398 -0.0745,0.007 -0.14581,-0.0172 -0.21911,-0.0212 -0.0484,-0.003 -0.0943,0.002 -0.10232,0.0599 -0.008,0.0594 0.0301,0.0865 0.0847,0.0935 0.13861,0.017 0.27782,0.0535 0.41031,-0.03 0.0178,-0.0112 0.05,-0.002 0.0749,5.3e-4 0.19879,0.0249 0.30148,-0.0849 0.29248,-0.28577 -0.011,-0.22806 -0.003,-0.45699 -0.003,-0.67851 0.23133,0.3573 0.42497,0.74728 0.52813,1.17822 0.006,0.0248 0.009,0.0501 0.0165,0.0744 0.021,0.0678 0.0658,0.0846 0.12506,0.0486 0.0541,-0.0328 0.10401,-0.0715 0.15761,-0.10903 0.0197,0.0364 0.0228,0.0709 0.0227,0.10542 -9e-5,0.50449 0.0622,1.00067 0.20567,1.48518 0.011,0.037 0.005,0.0602 -0.0274,0.0806 -0.1458,0.0923 -0.29045,0.18587 -0.45423,0.24547 -0.23262,0.0847 -0.43975,0.0232 -0.63511,-0.10646 -0.26571,-0.17643 -0.46993,-0.41249 -0.6444,-0.67593 -0.19531,-0.29493 -0.37383,-0.60285 -0.42323,-0.95704 -0.0698,-0.50026 0.0153,-0.97441 0.32091,-1.39268 0.0202,-0.0277 0.0382,-0.0582 0.078,-0.0662 0.037,-0.007 0.0652,-0.0263 0.0682,-0.0692 0.004,-0.046 -0.0258,-0.0678 -0.0589,-0.0904 -0.0685,-0.0468 -0.13637,-0.0947 -0.20257,-0.14469 -0.0486,-0.0368 -0.0895,-0.082 -0.12454,-0.13229 -0.0411,-0.0591 -0.0633,-0.12051 -0.015,-0.18501 0.0399,-0.0532 0.0893,-0.0942 0.14987,-0.0992 z m 5.30924,0.59842 c -0.0217,-0.004 -0.0443,-0.003 -0.0672,0.002 -0.0916,0.0213 -0.15541,0.11305 -0.15141,0.21446 0.004,0.0913 0.0668,0.13755 0.13487,0.18035 0.18721,0.0146 0.2624,-0.0588 0.2496,-0.24443 -0.0426,-0.088 -0.10081,-0.14061 -0.16588,-0.15245 z m -1.91823,0.015 c -0.10655,-0.003 -0.15895,0.0641 -0.18965,0.15555 0.005,0.20305 0.0996,0.27729 0.29145,0.22789 0.0772,-0.068 0.12118,-0.14818 0.0796,-0.25218 -0.0321,-0.0801 -0.093,-0.12826 -0.18138,-0.13126 z m 0.95395,0.19482 v 0.002 c -0.0286,0 -0.0577,-0.003 -0.0858,5.3e-4 -0.1932,0.0263 -0.25703,0.13866 -0.17983,0.3173 0.0473,0.10938 0.11967,0.2025 0.19947,0.2899 0.0403,0.0442 0.0804,0.0485 0.12092,0.002 0.0776,-0.0889 0.15286,-0.18007 0.19896,-0.29043 0.0788,-0.18866 0.008,-0.30339 -0.19637,-0.32039 -0.019,-0.001 -0.0383,-5.3e-4 -0.0574,-5.3e-4 z m -0.009,0.12713 c 2e-5,7.4e-4 5.1e-4,0.002 5.3e-4,0.002 0.0189,-2e-5 0.038,-0.001 0.0568,0 0.11393,0.0106 0.13649,0.0451 0.0863,0.14625 -0.0295,0.0595 -0.0698,0.11377 -0.10491,0.17053 -0.0248,0.04 -0.0483,0.0342 -0.0708,-0.002 -0.0352,-0.0567 -0.0746,-0.11091 -0.10387,-0.17053 -0.0489,-0.0994 -0.0295,-0.13095 0.0791,-0.14314 0.019,-0.002 0.0378,-0.002 0.0569,-0.003 z m 2.42983,0.74 h 5.3e-4 c 0.13507,-0.0154 0.25843,0.0556 0.37569,0.21084 0.20801,0.27546 0.29567,0.59034 0.2961,1.00769 0.002,0.13891 -0.0361,0.34493 -0.1297,0.53847 -0.0244,0.0504 -0.0397,0.10081 0.0191,0.13281 0.0525,0.0286 0.0885,-0.003 0.11679,-0.0496 0.0288,-0.0469 0.0678,-0.0855 0.11988,-0.10697 0.0449,-0.0186 0.0928,-0.0175 0.12454,0.0191 0.033,0.0382 0.005,0.0776 -0.0181,0.11317 -0.0234,0.0367 -0.0587,0.0561 -0.0956,0.0765 -0.039,0.0214 -0.0491,0.0583 -0.031,0.0992 0.0165,0.0374 0.0481,0.0484 0.0868,0.0424 0.003,0 0.006,-0.002 0.009,-0.003 0.0934,-0.0207 0.18821,-0.0352 0.25012,0.061 0.0632,0.0983 0.0371,0.19838 -0.0181,0.28938 -0.094,0.15505 -0.23467,0.24625 -0.416,0.25425 -0.62756,0.0265 -1.30921,-0.33626 -1.46399,-1.13068 -0.11218,-0.57579 0.0524,-1.06338 0.51676,-1.43247 0.091,-0.0724 0.17625,-0.11296 0.25735,-0.12196 z m -1.2361,0.88987 c -0.0226,-0.002 -0.047,0.003 -0.0718,0.016 -0.10252,0.053 -0.20625,0.0935 -0.31678,0.12351 -0.065,0.0176 -0.10913,0.0665 -0.11213,0.13901 -0.003,0.0715 0.0357,0.12053 0.0941,0.15503 0.0624,0.0366 0.13268,0.0415 0.19378,0.0465 0.17728,1.4e-4 0.32873,-0.15391 0.33073,-0.32608 8.2e-4,-0.0854 -0.0501,-0.14914 -0.11782,-0.154 z m -2.37608,0.001 c -0.0293,-7.9e-4 -0.0581,0.007 -0.0837,0.031 -0.054,0.0499 -0.0444,0.1158 -0.0227,0.1788 0.0546,0.15846 0.2017,0.25917 0.37621,0.25838 0.0128,0 0.0255,9.8e-4 0.0382,0 0.11571,-0.009 0.21531,-0.0866 0.22531,-0.17415 0.01,-0.0891 -0.0453,-0.14798 -0.18604,-0.17828 -0.0915,-0.0198 -0.17643,-0.0506 -0.25993,-0.0915 -0.0279,-0.0135 -0.058,-0.0235 -0.0873,-0.0243 z m 2.31148,0.19637 c -0.0568,0.1395 -0.14509,0.16445 -0.27388,0.0863 0.0914,-0.0342 0.19294,-0.0224 0.27388,-0.0863 z m -2.235,0.003 c 0.0896,0.044 0.18992,0.0487 0.2899,0.0832 -0.1208,0.0611 -0.22041,0.0331 -0.2899,-0.0832 z m 1.13171,0.0393 c -0.0729,0.005 -0.14631,-0.005 -0.21911,0.0114 -0.0635,0.0142 -0.11237,0.0437 -0.13177,0.10904 -0.0202,0.0682 0.003,0.12565 0.0506,0.17415 0.13286,0.13528 0.40963,0.14749 0.55397,0.0238 0.062,-0.0533 0.0974,-0.12019 0.0698,-0.20309 -0.0265,-0.0799 -0.0949,-0.10721 -0.17157,-0.11421 -0.0504,-0.005 -0.10113,-0.001 -0.15193,-0.001 z m -0.18707,0.15296 c 0.10572,0 0.21157,2.3e-4 0.3173,5.3e-4 0.0157,4e-5 0.0362,0.002 0.0356,0.0202 -3.7e-4,0.0125 -0.0144,0.0272 -0.0258,0.0367 -0.0802,0.0673 -0.22379,0.0525 -0.32711,-0.0574 z m 2.92902,1.57562 c 0.008,7.4e-4 0.017,0.004 0.0284,0.009 0.17453,0.0862 0.35115,0.16694 0.54053,0.21704 0.0669,0.0177 0.0569,0.059 0.0191,0.0992 -0.0437,0.0466 -0.10329,0.0659 -0.16329,0.0739 -0.14064,0.018 -0.28048,0.015 -0.41445,-0.0398 -0.0502,-0.0205 -0.10388,-0.0406 -0.13488,0.0186 -0.0343,0.0654 0.0172,0.0982 0.0677,0.12506 0.0168,0.009 0.0343,0.0174 0.0506,0.0274 0.0429,0.0261 0.11773,0.0419 0.11473,0.0889 -0.004,0.0597 -0.0823,0.07 -0.13436,0.0879 -0.17854,0.0608 -0.36153,0.075 -0.56689,0.0336 0.27989,-0.16717 0.44735,-0.40553 0.54725,-0.69453 0.007,-0.0207 0.0143,-0.0354 0.0253,-0.0424 0.005,-0.004 0.0122,-0.005 0.0202,-0.004 z m -3.47214,0.83974 c 0.0193,-0.002 0.04,-4.8e-4 0.062,0.006 0.13104,0.0367 0.26623,0.0521 0.40101,0.078 -0.0303,0.0541 -0.0569,0.1049 -0.0863,0.15348 -0.0222,0.0367 -0.0567,0.0605 -0.0977,0.0718 -0.0272,0.008 -0.0587,0.0139 -0.0801,-0.0119 -0.0183,-0.0221 -0.009,-0.048 0.002,-0.0718 0.008,-0.0173 0.0184,-0.0338 0.0243,-0.0517 0.0127,-0.0386 0.0149,-0.0777 -0.0253,-0.10129 -0.0376,-0.0221 -0.0745,-0.0133 -0.10335,0.0186 -0.0389,0.043 -0.0797,0.0822 -0.13849,0.0972 -0.0642,0.0164 -0.0842,-0.0136 -0.0729,-0.0708 0.0134,-0.0683 0.0569,-0.11066 0.11472,-0.1173 z m 0.61082,0.0894 c 0.0133,1.2e-4 0.0263,0.003 0.0398,0.008 h 5.3e-4 c 0.0385,0.01 0.1013,-0.0174 0.11265,0.0176 0.0166,0.0512 -0.0235,0.10173 -0.063,0.14056 -0.0155,0.0153 -0.034,0.0284 -0.0532,0.0388 -0.0251,0.0134 -0.0532,0.027 -0.0796,0.003 -0.0241,-0.022 -0.0102,-0.047 0,-0.0698 0.0191,-0.0424 0.0221,-0.0845 0.003,-0.12764 0.0131,-0.007 0.0265,-0.01 0.0398,-0.01 z m 0.7276,0.0114 c 0.14323,0.004 0.28661,0.001 0.42995,0.001 0.0361,-6e-5 0.0559,0.005 0.014,0.0351 v 5.3e-4 c -6.8e-4,-2.7e-4 -10e-4,-2.6e-4 -0.002,-5.3e-4 5.3e-4,4e-4 0.002,6.3e-4 0.002,0.001 -0.0253,0.081 -0.0424,0.16649 -0.12402,0.21498 -0.0282,0.0167 -0.0602,0.0315 -0.0894,0.0119 -0.0316,-0.0213 -0.0224,-0.0586 -0.0124,-0.0873 0.0185,-0.0532 0.0371,-0.10339 -0.0217,-0.14366 7.1e-4,-4e-4 0.002,-6.4e-4 0.003,-0.001 -8.8e-4,2.3e-4 -0.002,3e-4 -0.003,5.3e-4 -0.0488,-0.006 -0.0864,0.008 -0.11266,0.0527 -0.0127,0.0215 -0.0295,0.0435 -0.0496,0.0574 -0.0378,0.0262 -0.0771,0.0668 -0.12816,0.0372 -0.0275,-0.016 -0.0228,-0.0517 -0.0124,-0.0791 0.0191,-0.0496 0.0317,-0.10286 0.10646,-0.10077 z m 0.54932,0.002 c 0.0506,0 0.0851,2.6e-4 0.11989,0 0.11069,-8.5e-4 0.12022,0.0144 0.0718,0.11472 -0.017,0.0352 -0.0403,0.0654 -0.0744,0.0848 -0.0216,0.0122 -0.0455,0.0281 -0.0708,0.0155 -0.0292,-0.0145 -0.0202,-0.0443 -0.017,-0.0682 0.006,-0.0479 0.0109,-0.0946 -0.0294,-0.14676 z"
             id="path1029"
             sodipodi:nodetypes="cccccccccccccccccccccccccccccccccccccccccccccccccccccccccccccccccccccccccccccccccccccccccccccccccccccccccccccccccccccccccccccccccccccccccccccccccccccccccccccccccccccccccccccccccccccccccccccccccccccccccccccccccccccccccccccccccccccccccccccccccccccccccccccccccccccccccccccccccccccccccccccccccccccccccccccccccccccccccccccccccccccccccccccccccccccccccccccccccccccccccccccccccccccccccccccccccccccccccccccccccccccccc" />
          <path
             style="fill:#ffcc00;stroke-width:0.07257627"
             d="m 17.878906,12.884766 c -0.07219,0.0038 -0.14341,0.0042 -0.214844,0.01172 -0.410456,0.04607 -0.4856,0.165331 -0.300781,0.541016 0.110627,0.225335 0.261492,0.430232 0.394531,0.644531 0.08504,0.137197 0.171893,0.158994 0.265626,0.0078 0.132812,-0.214526 0.286941,-0.41965 0.398437,-0.644532 0.189694,-0.382488 0.10443,-0.512671 -0.326172,-0.552734 -0.07143,-0.0047 -0.144608,0 -0.216797,0 -7.5e-5,0 7.6e-5,-0.005 0,-0.0078 z m -2.662109,16.773437 c -0.218693,0.02509 -0.382854,0.185407 -0.433594,0.443359 -0.04271,0.216189 0.03275,0.329563 0.275391,0.267579 0.22216,-0.05669 0.374461,-0.204668 0.521484,-0.367188 0.109039,-0.120567 0.248515,-0.15384 0.390625,-0.07031 0.151937,0.08935 0.145656,0.236922 0.09766,0.382812 -0.0223,0.06765 -0.06156,0.129927 -0.0918,0.195313 -0.04157,0.08995 -0.07698,0.187956 -0.0078,0.271484 0.0805,0.09751 0.199931,0.07516 0.302734,0.04492 0.154961,-0.04271 0.285235,-0.132776 0.369141,-0.271484 0.111118,-0.18361 0.211652,-0.375606 0.326172,-0.580079 -0.509405,-0.09789 -1.020356,-0.156213 -1.515625,-0.294921 -0.08324,-0.02329 -0.161477,-0.02985 -0.234375,-0.02148 z m 2.306641,0.337891 c -0.05031,-4.73e-4 -0.09893,0.01027 -0.148438,0.03711 0.07181,0.162973 0.06047,0.32217 -0.01172,0.482422 -0.03885,0.08617 -0.09109,0.180522 0,0.263672 0.09978,0.09222 0.205915,0.04088 0.300781,-0.0098 0.07257,-0.03931 0.14259,-0.08866 0.201172,-0.146484 0.149292,-0.146759 0.301022,-0.337738 0.238282,-0.53125 -0.0429,-0.132284 -0.28027,-0.02861 -0.425782,-0.06641 h -0.002 c -0.05083,-0.01739 -0.102029,-0.02882 -0.152343,-0.0293 z m 2.751953,0.04297 c -0.282444,-0.0079 -0.330155,0.193395 -0.402344,0.38086 -0.03968,0.103559 -0.05706,0.238356 0.04687,0.298828 0.19302,0.111874 0.341509,-0.0416 0.484375,-0.140625 0.07635,-0.05253 0.1395,-0.135537 0.1875,-0.216797 0.09925,-0.169323 0.24134,-0.221896 0.425781,-0.199219 0.0033,-8.76e-4 0.0065,-0.0011 0.0098,-0.002 -0.0027,0.0015 -0.0071,0.0024 -0.0098,0.0039 0.222236,0.152202 0.151953,0.341898 0.08203,0.542969 -0.0378,0.108473 -0.07256,0.249574 0.04687,0.330078 0.110363,0.07408 0.229355,0.0182 0.335938,-0.04492 0.308644,-0.183255 0.375011,-0.506503 0.470703,-0.8125 -0.002,-0.0015 -0.0058,-0.0024 -0.0078,-0.0039 0.0026,9.79e-4 0.0052,9.55e-4 0.0078,0.002 v -0.002 c 0.15874,-0.114141 0.08371,-0.133039 -0.05273,-0.132812 -0.541758,0 -1.083659,0.01121 -1.625,-0.0039 z m 2.074218,0.0059 c 0.152693,0.197027 0.135959,0.373648 0.113282,0.554687 -0.01172,0.09033 -0.04591,0.20301 0.06445,0.257813 0.09562,0.04762 0.18594,-0.01248 0.267578,-0.05859 0.128882,-0.07295 0.216998,-0.187273 0.28125,-0.320312 0.182891,-0.379238 0.146871,-0.436807 -0.271484,-0.433594 -0.131415,10e-4 -0.263835,0 -0.455079,0 z"
             transform="matrix(0.26458333,0,0,0.26458333,-281.62442,147.60739)"
             id="path869"
             inkscape:connector-curvature="0"
             sodipodi:nodetypes="cccccccscscccccccccccscccccccccccccccccccccccccccccccccc" />
          <g
             id="g1555"
             transform="matrix(1.6136528,0,0,1.6136528,170.4804,-92.596544)">
            <ellipse
               ry="0.44144797"
               rx="0.39604422"
               cy="150.89404"
               cx="-277.8125"
               id="path1545"
               style="opacity:1;fill:#000000;fill-opacity:1;stroke:none;stroke-width:0.34458572;stroke-linecap:round;stroke-linejoin:miter;stroke-miterlimit:4;stroke-dasharray:none;stroke-opacity:1" />
            <ellipse
               ry="0.14652757"
               rx="0.17378852"
               cy="150.74289"
               cx="-277.9201"
               id="path1549"
               style="opacity:1;fill:#ffffff;fill-opacity:1;stroke:none;stroke-width:0.43686196;stroke-linecap:round;stroke-linejoin:miter;stroke-miterlimit:4;stroke-dasharray:none;stroke-opacity:1" />
          </g>
          <use
             x="0"
             y="0"
             xlink:href="#g1555"
             id="use1567"
             transform="translate(1.9001193)"
             width="100%"
             height="100%" />
        </g>
      </g>
    </g>
  </g>
</svg>
